<?xml version="1.0" encoding="UTF-8" standalone="no"?>
<!-- Created with Inkscape (http://www.inkscape.org/) -->

<svg
   width="26.458317mm"
   height="26.458313mm"
   viewBox="0 0 26.458317 26.458313"
   version="1.1"
   id="svg5"
   xmlns="http://www.w3.org/2000/svg"
   xmlns:svg="http://www.w3.org/2000/svg">
  <defs
     id="defs2" />
  <g
     id="layer1"
     transform="translate(-74.580572,-109.42502)">
    <text
       xml:space="preserve"
       style="font-size:38.1px;font-family:'Arial Black';-inkscape-font-specification:'Arial Black, Normal';fill:#897157;stroke-width:0.327619"
       x="82.174736"
       y="120.44178"
       id="text790"
       transform="scale(0.88636168,1.1282076)"><tspan
         id="tspan788"
         style="font-style:normal;font-variant:normal;font-weight:bold;font-stretch:normal;font-size:38.1px;font-family:'Avenir Next';-inkscape-font-specification:'Avenir Next Bold';stroke-width:0.327619"
         x="82.174736"
         y="120.44178" /></text>
    <text
       xml:space="preserve"
       style="font-style:normal;font-variant:normal;font-weight:bold;font-stretch:normal;font-size:34.9978px;font-family:'Avenir Next';-inkscape-font-specification:'Avenir Next Bold';fill:#bc6d38;stroke-width:0.24304;fill-opacity:1"
       x="83.510612"
       y="135.89166"
       id="text956"><tspan
         id="tspan954"
         style="font-style:normal;font-variant:normal;font-weight:bold;font-stretch:normal;font-family:'Avenir Next Condensed';-inkscape-font-specification:'Avenir Next Condensed,  Bold';stroke-width:0.24304;fill:#bc6d38;fill-opacity:1"
         x="83.510612"
         y="135.89166">k<tspan
   style="font-size:17.4989px;stroke-width:0.24304;fill:#bc6d38;fill-opacity:1"
   id="tspan958" /></tspan></text>
    <rect
       style="fill:#897157;stroke-width:0.340565;fill-opacity:1"
       id="rect1116"
       width="22.562494"
       height="1.8726349"
       x="110.97823"
       y="-78.537483"
       transform="rotate(90)" />
    <path
       style="fill:#897157;stroke-width:0.106438;fill-opacity:1"
       id="path1598"
       d="m 78.538223,133.53242 a 0.93631744,2.4488299 0 0 1 -0.468158,2.12075 0.93631744,2.4488299 0 0 1 -0.936318,0 0.93631744,2.4488299 0 0 1 -0.468159,-2.12075 h 0.936318 z" />
    <rect
       style="fill:#bda780;fill-opacity:1;stroke-width:0.0575399"
       id="rect1600"
       width="2.8089523"
       height="1.6911038"
       x="76.204483"
       y="109.52293"
       ry="0.77389497" />
    <rect
       style="fill:#897157;stroke-width:0.340565;fill-opacity:1"
       id="rect1607"
       width="22.562494"
       height="1.8726349"
       x="-134.36829"
       y="-82.70932"
       transform="matrix(0,-1,-1,0,0,0)" />
    <path
       style="fill:#897157;stroke-width:0.106438;fill-opacity:1"
       id="path1609"
       d="m 82.710052,-111.81409 a 0.93631744,2.4488299 0 0 1 -0.468158,2.12075 0.93631744,2.4488299 0 0 1 -0.936318,0 0.93631744,2.4488299 0 0 1 -0.468158,-2.12075 h 0.936317 z"
       transform="scale(1,-1)" />
    <rect
       style="fill:#bda780;fill-opacity:1;stroke-width:0.0575399"
       id="rect1611"
       width="2.8089523"
       height="1.6911038"
       x="80.37632"
       y="-135.82359"
       ry="0.77389497"
       transform="scale(1,-1)" />
  </g>
</svg>
